<?xml version="1.0" encoding="UTF-8"?><svg id="Layer_1" xmlns="http://www.w3.org/2000/svg" width="190" height="190" viewBox="0 0 190 190"><path d="M47.07,55.21l5.94,11.91,.23,.47,.52,.07,13.18,1.86-9.49,9.33-.37,.37,.09,.52,2.31,13.11-11.81-6.14-.47-.24-.46,.25-11.75,6.25,2.19-13.13,.09-.52-.38-.37-9.57-9.25,13.16-1.97,.52-.08,.23-.47,5.84-11.96m-.01-2.26l-6.73,13.78-15.17,2.27,11.03,10.66-2.52,15.13,13.54-7.2,13.61,7.08-2.66-15.1,10.93-10.75-15.19-2.14-6.85-13.72h0Z"/><path d="M95.17,55.26l5.94,11.91,.23,.47,.52,.07,13.18,1.86-9.49,9.33-.37,.37,.09,.52,2.31,13.11-11.81-6.14-.47-.24-.46,.25-11.75,6.25,2.19-13.13,.09-.52-.38-.37-9.57-9.25,13.16-1.97,.52-.08,.23-.47,5.84-11.96m-.01-2.26l-6.73,13.78-15.17,2.27,11.03,10.66-2.52,15.13,13.54-7.2,13.61,7.08-2.66-15.1,10.93-10.75-15.19-2.14-6.85-13.72h0Z"/><path d="M143.24,54.5l5.94,11.91,.23,.47,.52,.07,13.18,1.86-9.49,9.33-.37,.37,.09,.52,2.31,13.11-11.81-6.14-.47-.24-.46,.25-11.75,6.25,2.19-13.13,.09-.52-.38-.37-9.57-9.25,13.16-1.97,.52-.08,.23-.47,5.84-11.96m-.01-2.26l-6.73,13.78-15.17,2.27,11.03,10.66-2.52,15.13,13.54-7.2,13.61,7.08-2.66-15.1,10.93-10.75-15.19-2.14-6.85-13.72h0Z"/><path d="M71.57,96.42l5.94,11.91,.23,.47,.52,.07,13.18,1.86-9.49,9.33-.37,.37,.09,.52,2.31,13.11-11.81-6.14-.47-.24-.46,.25-11.75,6.25,2.19-13.13,.09-.52-.38-.37-9.57-9.25,13.16-1.97,.52-.08,.23-.47,5.84-11.96m-.01-2.26l-6.73,13.78-15.17,2.27,11.03,10.66-2.52,15.13,13.54-7.2,13.61,7.08-2.66-15.1,10.93-10.75-15.19-2.14-6.85-13.72h0Z"/><path d="M120,96.47l5.94,11.91,.23,.47,.52,.07,13.18,1.86-9.49,9.33-.37,.37,.09,.52,2.31,13.11-11.81-6.14-.47-.24-.46,.25-11.75,6.25,2.19-13.13,.09-.52-.38-.37-9.57-9.25,13.16-1.97,.52-.08,.23-.47,5.84-11.96m-.01-2.26l-6.73,13.78-15.17,2.27,11.03,10.66-2.52,15.13,13.54-7.2,13.61,7.08-2.66-15.1,10.93-10.75-15.19-2.14-6.85-13.72h0Z"/></svg>