<?xml version="1.0" encoding="UTF-8"?><svg id="Layer_1" xmlns="http://www.w3.org/2000/svg" width="335" height="140" viewBox="0 0 335 140"><defs><style>.cls-1{fill:none;stroke:#000;stroke-miterlimit:10;stroke-width:2px;}</style></defs><path class="cls-1" d="M2.87,113.71c13.39-4.72,30.67-9.08,51-10,54.66-2.48,95.82,21.48,113,33,17.61-11.48,58.7-34.59,113-32,20.29,.97,37.56,5.29,51,10"/><path class="cls-1" d="M3.12,87.56c13.39-4.72,30.67-9.08,51-10,54.66-2.48,95.82,21.48,113,33,17.61-11.48,58.7-34.59,113-32,20.29,.97,37.56,5.29,51,10"/><path class="cls-1" d="M112.87,4.71c9.06,6.03,22.6,16.74,34,34,17.85,27.04,19.85,54.09,20,66,.3-12.08,2.7-40.31,22-68,12.21-17.52,26.54-28.13,36-34"/><path class="cls-1" d="M46.87,14.71c18.72,7.1,45.73,19.9,73,43,22.05,18.68,37.13,38.05,47,53,10.65-15.65,28.2-37.61,55-58,26.15-19.89,51.33-30.87,69-37"/><path d="M53.07,41.52c19.5-1.45,39.19,2.95,56.36,12.28,4.95,2.69,9.69,5.77,14.15,9.22,1.13,.87,2.74-.71,1.59-1.59-15.9-12.29-35.06-20.07-55.09-21.98-5.66-.54-11.35-.59-17.01-.17-1.44,.11-1.45,2.36,0,2.25h0Z"/><path d="M279.98,41.32c-19.27-1.33-38.79,2.69-56.04,11.36-4.93,2.48-9.65,5.35-14.14,8.56-1.17,.84-.04,2.79,1.14,1.94,15.48-11.1,33.95-17.92,52.94-19.5,5.36-.45,10.74-.48,16.1-.11,1.45,.1,1.44-2.15,0-2.25h0Z"/><path d="M52.41,39.18c-7.09,5.17-13.25,11.4-19.46,17.55s-13.25,12.58-19.86,18.9c-3.63,3.46-7.13,7.05-10.28,10.97-.9,1.12,.68,2.72,1.59,1.59,5.46-6.79,12-12.56,18.34-18.5s12.91-12.63,19.44-18.87c3.61-3.44,7.34-6.76,11.37-9.7,1.16-.84,.04-2.8-1.14-1.94h0Z"/><path d="M279.81,44.18c7.22,4.84,13.54,10.81,19.95,16.65s13.58,11.87,20.35,17.84c3.68,3.25,7.25,6.63,10.48,10.33,.95,1.09,2.54-.5,1.59-1.59-5.8-6.65-12.68-12.21-19.34-17.97s-13.42-12.16-20.23-18.12c-3.71-3.25-7.56-6.35-11.66-9.09-1.21-.81-2.33,1.14-1.14,1.94h0Z"/><path d="M47.67,16.3c16.96-2.54,33.89-5.27,50.79-8.2,4.82-.83,9.64-1.68,14.45-2.55,1.42-.26,.82-2.42-.6-2.17-16.89,3.03-33.81,5.88-50.76,8.53-4.83,.75-9.66,1.49-14.49,2.22-1.43,.21-.82,2.38,.6,2.17h0Z"/><path d="M290.34,14.84c-16.86-3.16-33.68-6.5-50.46-10.04-4.79-1.01-9.57-2.03-14.35-3.07-1.41-.31-2.01,1.86-.6,2.17,16.77,3.64,33.57,7.1,50.41,10.37,4.8,.93,9.6,1.84,14.4,2.74,1.42,.27,2.02-1.9,.6-2.17h0Z"/><path d="M2.43,92.47c.45,3.02,.64,6.04,.44,9.08-.18,2.75-.47,5.47-.48,8.23,0,1.45,2.24,1.45,2.25,0,.01-2.83,.32-5.62,.5-8.43,.2-3.18-.06-6.33-.53-9.48-.09-.61-.85-.93-1.38-.79-.64,.17-.88,.79-.79,1.38h0Z"/><path d="M330.28,91.69c-.8,3.04-1.32,6.14-1,9.29,.29,2.88,.81,5.7,.86,8.61,.03,1.45,2.28,1.45,2.25,0-.05-2.85-.54-5.61-.85-8.42-.33-3.03,.13-5.94,.9-8.88,.37-1.4-1.8-2-2.17-.6h0Z"/><path d="M165.35,105.04v32.18c0,1.45,2.25,1.45,2.25,0v-32.18c0-1.45-2.25-1.45-2.25,0h0Z"/><path d="M166.77,105.99c1.45,0,1.45-2.25,0-2.25s-1.45,2.25,0,2.25h0Z"/></svg>