<?xml version="1.0" encoding="UTF-8"?><svg id="Layer_1" xmlns="http://www.w3.org/2000/svg" width="1064" height="1265" viewBox="0 0 1064 1265"><defs><style>.cls-1{fill:none;stroke:#000;stroke-miterlimit:10;stroke-width:2px;}</style></defs><path class="cls-1" d="M114.84,1200.41c13.39-4.72,30.67-9.08,51-10,54.66-2.48,95.82,21.48,113,33,17.61-11.48,58.7-34.59,113-32,20.29,.97,37.56,5.29,51,10"/><path class="cls-1" d="M115.08,1174.25c13.39-4.72,30.67-9.08,51-10,54.66-2.48,95.82,21.48,113,33,17.61-11.48,58.7-34.59,113-32,20.29,.97,37.56,5.29,51,10"/><path class="cls-1" d="M224.84,1091.41c9.06,6.03,22.6,16.74,34,34,17.85,27.04,19.85,54.09,20,66,.3-12.08,2.7-40.31,22-68,12.21-17.52,26.54-28.13,36-34"/><path class="cls-1" d="M158.84,1101.41c18.72,7.1,45.73,19.9,73,43,22.05,18.68,37.13,38.05,47,53,10.65-15.65,28.2-37.61,55-58,26.15-19.89,51.33-30.87,69-37"/><path d="M165.03,1128.21c19.5-1.45,39.19,2.95,56.36,12.28,4.95,2.69,9.69,5.77,14.15,9.22,1.13,.87,2.74-.71,1.59-1.59-15.9-12.29-35.06-20.07-55.09-21.98-5.66-.54-11.35-.59-17.01-.17-1.44,.11-1.45,2.36,0,2.25h0Z"/><path d="M391.95,1128.02c-19.27-1.33-38.79,2.69-56.04,11.36-4.93,2.48-9.65,5.35-14.14,8.56-1.17,.84-.04,2.79,1.14,1.94,15.48-11.1,33.95-17.92,52.94-19.5,5.36-.45,10.74-.48,16.1-.11,1.45,.1,1.44-2.15,0-2.25h0Z"/><path d="M164.37,1125.87c-7.09,5.17-13.25,11.4-19.46,17.55s-13.25,12.58-19.86,18.9c-3.63,3.46-7.13,7.05-10.28,10.97-.9,1.12,.68,2.72,1.59,1.59,5.46-6.79,12-12.56,18.34-18.5s12.91-12.63,19.44-18.87c3.61-3.44,7.34-6.76,11.37-9.7,1.16-.84,.04-2.8-1.14-1.94h0Z"/><path d="M391.77,1130.88c7.22,4.84,13.54,10.81,19.95,16.65,6.67,6.08,13.58,11.87,20.35,17.84,3.68,3.25,7.25,6.63,10.48,10.33,.95,1.09,2.54-.5,1.59-1.59-5.8-6.65-12.68-12.21-19.34-17.97-6.85-5.92-13.42-12.16-20.23-18.12-3.71-3.25-7.56-6.35-11.66-9.09-1.21-.81-2.33,1.14-1.14,1.94h0Z"/><path d="M159.64,1102.99c16.96-2.54,33.89-5.27,50.79-8.2,4.82-.83,9.64-1.68,14.45-2.55,1.42-.26,.82-2.42-.6-2.17-16.89,3.03-33.81,5.88-50.76,8.53-4.83,.75-9.66,1.49-14.49,2.22-1.43,.21-.82,2.38,.6,2.17h0Z"/><path d="M402.3,1101.54c-16.86-3.16-33.68-6.5-50.46-10.04-4.79-1.01-9.57-2.03-14.35-3.07-1.41-.31-2.01,1.86-.6,2.17,16.77,3.64,33.57,7.1,50.41,10.37,4.8,.93,9.6,1.84,14.4,2.74,1.42,.27,2.02-1.9,.6-2.17h0Z"/><path d="M114.39,1179.16c.45,3.02,.64,6.04,.44,9.08-.18,2.75-.47,5.47-.48,8.23,0,1.45,2.24,1.45,2.25,0,.01-2.83,.32-5.62,.5-8.43,.2-3.18-.06-6.33-.53-9.48-.09-.61-.85-.93-1.38-.79-.64,.17-.88,.79-.79,1.38h0Z"/><path d="M442.25,1178.38c-.8,3.04-1.32,6.14-1,9.29,.29,2.88,.81,5.7,.86,8.61,.03,1.45,2.28,1.45,2.25,0-.05-2.85-.54-5.61-.85-8.42-.33-3.03,.13-5.94,.9-8.88,.37-1.4-1.8-2-2.17-.6h0Z"/><path d="M277.31,1191.73v32.18c0,1.45,2.25,1.45,2.25,0v-32.18c0-1.45-2.25-1.45-2.25,0h0Z"/><path d="M278.74,1192.68c1.45,0,1.45-2.25,0-2.25s-1.45,2.25,0,2.25h0Z"/><path class="cls-1" d="M292.5,1009.39c-3.74,6.55-7.56,14.22-11,23-5.41,13.82-8.36,26.52-10,37,5.67,8,11.33,16,17,24,3.77-12.72,10.52-30.36,23-49,11.25-16.8,23.45-28.88,33-37-17.33,.67-34.67,1.33-52,2Z"/><path class="cls-1" d="M396.52,883.08c-6.6,5.71-13.6,12.47-20.59,20.41-14.23,16.19-23.96,32.27-30.63,45.64,6.57,7.58,13.14,15.17,19.7,22.75,5.93-14.96,13.37-25.89,19-33,6.83-8.61,17.25-21.47,35.42-30.11,6.55-3.12,12.4-4.87,16.58-5.89-13.16-6.6-26.32-13.2-39.48-19.8Z"/><path class="cls-1" d="M497.67,772.48c-5.7,6.93-11.95,15.69-17.67,26.41-9.13,17.1-13.65,33.02-16,45,12.33,5.33,24.67,10.67,37,16,.56-8.67,2.72-24.26,12-41,10.76-19.42,25.47-30.21,33-35-16.11-3.8-32.22-7.61-48.33-11.41Z"/><path class="cls-1" d="M937.65,122.91c-10.13-1.71-22.57-2.99-36.98-2.81-23,.29-42.78,4.2-57.24,8.1-1.24,16.11-2.49,32.22-3.73,48.32,13.14-2.36,28.07-4.35,44.4-5.31,23.45-1.39,43.81-.33,60.44,1.56-2.3-16.62-4.6-33.24-6.89-49.86Z"/><path class="cls-1" d="M631.29,684.92c-7.17,5.39-15.32,12.43-23.41,21.49-12.91,14.46-21.05,28.87-26.17,39.95,10.73,8.09,21.45,16.19,32.18,24.28,2.59-8.29,8.37-22.93,21.34-37.01,15.04-16.33,31.88-23.34,40.33-26.22-14.76-7.5-29.51-14.99-44.27-22.49Z"/><path class="cls-1" d="M671.14,552.78c-6.15,6.53-12.98,14.85-19.42,25.16-10.27,16.44-15.84,32.02-19,43.82,11.95,6.15,23.89,12.31,35.84,18.46,1.14-8.61,4.35-24.02,14.74-40.1,12.05-18.65,27.45-28.42,35.29-32.69-15.82-4.88-31.63-9.76-47.45-14.65Z"/><path class="cls-1" d="M783.15,479.12c-6.15,6.53-12.98,14.85-19.42,25.16-10.27,16.44-15.84,32.02-19,43.82,11.95,6.15,23.89,12.31,35.84,18.46,1.14-8.61,4.35-24.02,14.74-40.1,12.05-18.65,27.45-28.42,35.29-32.69-15.82-4.88-31.63-9.76-47.45-14.65Z"/><path class="cls-1" d="M730.86,365.05c-4.63,7.69-9.52,17.28-13.62,28.71-6.53,18.25-8.67,34.66-9.24,46.86,12.98,3.47,25.96,6.94,38.94,10.41-.72-8.66-.86-24.4,5.87-42.31,7.81-20.78,20.77-33.61,27.52-39.45-16.49-1.4-32.98-2.81-49.48-4.21Z"/><path class="cls-1" d="M851.86,237.37c-8.1,3.86-17.47,9.16-27.2,16.44-15.52,11.62-26.35,24.13-33.55,33.99,8.91,10.05,17.83,20.11,26.74,30.16,4.18-7.62,12.74-20.83,28.23-32.06,17.97-13.03,35.87-16.58,44.72-17.73-12.98-10.27-25.96-20.53-38.95-30.8Z"/></svg>