<?xml version="1.0" encoding="UTF-8"?><svg id="Layer_1" xmlns="http://www.w3.org/2000/svg" width="900" height="1350" viewBox="0 0 900 1350"><defs><style>.cls-1,.cls-2{fill:none;stroke:#a0a0a0;stroke-miterlimit:10;stroke-width:2px;}.cls-3,.cls-2{opacity:.4;}</style></defs><path class="cls-2" d="M231.21,917.78c-3.74,6.55-7.56,14.22-11,23-5.41,13.82-8.36,26.52-10,37,5.67,8,11.33,16,17,24,3.77-12.72,10.52-30.36,23-49,11.25-16.8,23.45-28.88,33-37-17.33,.67-34.67,1.33-52,2Z"/><g class="cls-3"><path class="cls-1" d="M335.23,791.48c-6.6,5.71-13.6,12.47-20.59,20.41-14.23,16.19-23.96,32.27-30.63,45.64,6.57,7.58,13.14,15.17,19.7,22.75,5.93-14.96,13.37-25.89,19-33,6.83-8.61,17.25-21.47,35.42-30.11,6.55-3.12,12.4-4.87,16.58-5.89-13.16-6.6-26.32-13.2-39.48-19.8Z"/></g><path class="cls-2" d="M436.38,680.87c-5.7,6.93-11.95,15.69-17.67,26.41-9.13,17.1-13.65,33.02-16,45,12.33,5.33,24.67,10.67,37,16,.56-8.67,2.72-24.26,12-41,10.76-19.42,25.47-30.21,33-35-16.11-3.8-32.22-7.61-48.33-11.41Z"/><path class="cls-2" d="M876.37,31.3c-10.13-1.71-22.57-2.99-36.98-2.81-23,.29-42.78,4.2-57.24,8.1-1.24,16.11-2.49,32.22-3.73,48.32,13.14-2.36,28.07-4.35,44.4-5.31,23.45-1.39,43.81-.33,60.44,1.56-2.3-16.62-4.6-33.24-6.89-49.86Z"/><path class="cls-2" d="M570,593.31c-7.17,5.39-15.32,12.43-23.41,21.49-12.91,14.46-21.05,28.87-26.17,39.95,10.73,8.09,21.45,16.19,32.18,24.28,2.59-8.29,8.37-22.93,21.34-37.01,15.04-16.33,31.88-23.34,40.33-26.22-14.76-7.5-29.51-14.99-44.27-22.49Z"/><path class="cls-2" d="M609.85,461.17c-6.15,6.53-12.98,14.85-19.42,25.16-10.27,16.44-15.84,32.02-19,43.82,11.95,6.15,23.89,12.31,35.84,18.46,1.14-8.61,4.35-24.02,14.74-40.1,12.05-18.65,27.45-28.42,35.29-32.69-15.82-4.88-31.63-9.76-47.45-14.65Z"/><path class="cls-2" d="M721.86,387.51c-6.15,6.53-12.98,14.85-19.42,25.16-10.27,16.44-15.84,32.02-19,43.82,11.95,6.15,23.89,12.31,35.84,18.46,1.14-8.61,4.35-24.02,14.74-40.1,12.05-18.65,27.45-28.42,35.29-32.69-15.82-4.88-31.63-9.76-47.45-14.65Z"/><path class="cls-2" d="M669.57,273.45c-4.63,7.69-9.52,17.28-13.62,28.71-6.53,18.25-8.67,34.66-9.24,46.86,12.98,3.47,25.96,6.94,38.94,10.41-.72-8.66-.86-24.4,5.87-42.31,7.81-20.78,20.77-33.61,27.52-39.45-16.49-1.4-32.98-2.81-49.48-4.21Z"/><path class="cls-2" d="M790.57,145.76c-8.1,3.86-17.47,9.16-27.2,16.44-15.52,11.62-26.35,24.13-33.55,33.99,8.91,10.05,17.83,20.11,26.74,30.16,4.18-7.62,12.74-20.83,28.23-32.06,17.97-13.03,35.87-16.58,44.72-17.73-12.98-10.27-25.96-20.53-38.95-30.8Z"/><path class="cls-2" d="M194.8,1054.58c-3.74,6.55-7.56,14.22-11,23-5.41,13.82-8.36,26.52-10,37,5.67,8,11.33,16,17,24,3.77-12.72,10.52-30.36,23-49,11.25-16.8,23.45-28.88,33-37-17.33,.67-34.67,1.33-52,2Z"/><path class="cls-2" d="M98.83,1150.68c-4.38,4.26-9.07,9.37-13.71,15.43-7.31,9.54-12.45,18.76-16.07,26.54,2.62,7.49,5.23,14.99,7.85,22.48,5.78-9.05,14.99-21.26,28.87-32.96,12.52-10.55,24.71-17.21,33.96-21.39-13.63-3.37-27.27-6.73-40.9-10.1Z"/><g class="cls-3"><path class="cls-1" d="M58.71,1261.28c-4.13,5.83-7.42,12.37-11,18.46-5.64,9.59-11.49,18.88-13.89,29.82,4.96,6.74,10.22,13.38,14.84,20.26,5.44-13.07,12.45-29.33,19.72-40.61,6.56-10.17,23.23-15.36,33.06-22.47-14.28-2.12-28.3-4.65-42.75-5.45Z"/></g></svg>